<?xml version="1.0" standalone="no"?>
<!DOCTYPE svg PUBLIC "-//W3C//DTD SVG 20010904//EN"
 "http://www.w3.org/TR/2001/REC-SVG-20010904/DTD/svg10.dtd">
<svg version="1.0" xmlns="http://www.w3.org/2000/svg"
 width="1280.000000pt" height="640.000000pt" viewBox="0 0 1280.000000 640.000000"
 preserveAspectRatio="xMidYMid meet">
<g transform="translate(0.000000,640.000000) scale(0.100000,-0.100000)"
fill="#000000" stroke="none">
<path d="M2623 4141 c-26 -12 -52 -36 -70 -62 -24 -36 -28 -52 -27 -109 0
-104 29 -151 134 -222 152 -103 298 -278 320 -385 15 -70 26 -89 62 -104 23
-9 32 -8 52 4 34 23 73 110 86 189 36 231 -130 588 -316 679 -68 33 -182 38
-241 10z"/>
<path d="M9255 4126 c-104 -27 -178 -72 -285 -172 -184 -174 -286 -409 -251
-577 14 -65 39 -97 75 -97 32 0 82 43 106 89 51 101 267 239 453 290 107 29
149 53 186 103 113 153 56 316 -125 363 -68 18 -92 18 -159 1z"/>
<path d="M4161 3975 c-243 -55 -399 -269 -347 -475 28 -111 98 -186 213 -230
47 -18 89 -24 223 -30 139 -6 177 -12 243 -34 198 -67 309 -198 310 -368 0
-132 -91 -256 -238 -323 -106 -49 -363 -106 -625 -140 -25 -3 -111 -6 -191 -6
-176 -1 -296 18 -469 73 -265 84 -381 99 -725 97 -290 -2 -378 8 -540 62 -130
44 -202 87 -360 214 -317 254 -516 368 -720 410 -242 50 -459 -29 -520 -188
-25 -67 -18 -162 17 -215 37 -54 92 -79 246 -107 134 -24 161 -33 199 -68 61
-55 25 -155 -72 -203 -48 -23 -75 -28 -188 -35 -140 -9 -247 -27 -362 -61 -80
-23 -209 -80 -219 -97 -5 -8 1624 -11 6331 -10 6271 1 6337 1 6273 20 -207 61
-343 109 -485 171 -435 189 -573 233 -760 245 -126 7 -268 -14 -409 -63 -155
-53 -239 -44 -306 32 -96 110 -32 248 135 293 22 5 90 17 150 26 351 50 454
125 485 352 27 202 -53 344 -250 443 -126 63 -248 91 -400 92 -216 0 -390 -47
-655 -177 -257 -126 -443 -254 -827 -568 -324 -264 -518 -389 -760 -491 -253
-106 -523 -166 -746 -166 -153 0 -225 21 -424 123 -212 109 -286 128 -518 135
-129 3 -210 0 -370 -18 -498 -54 -773 14 -1029 256 -104 97 -171 185 -364 473
-241 361 -353 469 -552 537 -66 22 -101 27 -205 30 -85 3 -146 -1 -189 -11z"/>
<path d="M8083 3949 c-51 -15 -146 -110 -186 -186 -41 -80 -53 -143 -37 -201
9 -35 15 -42 35 -42 18 0 30 10 44 39 27 52 102 115 181 152 36 17 76 36 88
42 55 27 71 130 27 171 -37 34 -90 43 -152 25z"/>
<path d="M5639 3910 c-51 -27 -115 -102 -133 -157 -26 -76 -30 -159 -12 -256
45 -236 166 -431 317 -506 79 -39 132 -42 155 -6 20 30 14 74 -17 117 -36 49
-50 117 -56 253 -5 112 -2 146 17 234 26 121 23 172 -14 235 -41 70 -86 100
-160 103 -46 2 -70 -2 -97 -17z"/>
<path d="M345 3876 c-106 -46 -114 -181 -13 -229 26 -12 54 -14 128 -10 111 6
213 -14 272 -52 131 -87 124 66 -8 184 -115 102 -282 149 -379 107z"/>
<path d="M12254 3836 c-121 -45 -223 -149 -224 -229 0 -42 24 -43 97 -6 66 34
69 34 202 34 90 0 144 5 158 13 78 44 68 153 -17 197 -43 22 -144 18 -216 -9z"/>
<path d="M1585 3837 c-61 -20 -94 -46 -117 -91 -28 -55 -21 -140 19 -203 29
-48 48 -60 193 -127 74 -34 212 -140 263 -202 14 -16 37 -55 50 -86 60 -135
152 -83 165 92 15 208 -168 506 -366 598 -64 29 -152 37 -207 19z"/>
<path d="M6900 3655 c-298 -64 -545 -262 -590 -472 -25 -117 48 -156 151 -81
65 47 116 66 223 83 125 20 218 22 338 5 111 -15 147 -9 218 39 85 57 126 158
100 244 -17 58 -110 148 -175 171 -69 23 -186 28 -265 11z"/>
<path d="M11957 3198 c-43 -12 -134 -90 -176 -152 -16 -23 -35 -61 -42 -85
-12 -42 -12 -44 12 -64 21 -17 34 -19 104 -14 115 8 224 48 270 98 30 33 35
46 35 88 0 96 -97 158 -203 129z"/>
<path d="M7927 3134 c-90 -28 -264 -220 -302 -334 -21 -65 -16 -98 18 -124 55
-41 221 -21 398 46 128 48 199 128 199 223 0 63 -20 105 -69 147 -66 56 -150
71 -244 42z"/>
<path d="M2523 3105 c-37 -16 -53 -42 -53 -85 0 -59 24 -87 113 -129 88 -42
169 -110 199 -168 24 -45 53 -44 68 3 48 144 -121 394 -265 393 -16 0 -44 -6
-62 -14z"/>
<path d="M3711 3064 c-83 -31 -141 -113 -141 -199 0 -40 31 -104 66 -137 66
-62 242 -117 399 -124 84 -5 106 -2 135 13 34 17 35 20 35 74 0 45 -7 66 -35
114 -46 77 -172 203 -239 239 -66 35 -155 43 -220 20z"/>
<path d="M12449 2800 c-60 -10 -120 -42 -153 -80 -39 -47 -29 -78 19 -59 38
15 115 9 191 -15 70 -23 80 -24 111 -11 41 17 56 52 42 94 -20 58 -110 88
-210 71z"/>
<path d="M169 2727 c-25 -19 -41 -56 -33 -80 11 -38 35 -57 102 -77 113 -35
164 -22 142 35 -14 36 -61 93 -97 116 -32 21 -90 24 -114 6z"/>
</g>
</svg>
